PathFileType	4	(X/Y/Z)	D:\TRACE\spot_10-12-23\spot_body_motion_2_3-v60.trc
DataRate	CameraRate	NumFrames	NumMarkers	Units	OrigDataRate	OrigDataStartFrame	OrigNumFrames
100.00	100.00	      28	9	mm	100.00	1	      7000
Frame#	Time	front left toe			Front right toe			aft left toe			aft right toe			Arm			FL body			FR body			AL Body			AR Body			
		X1	Y1	Z1	X2	Y2	Z2	X3	Y3	Z3	X4	Y4	Z4	X5	Y5	Z5	X6	Y6	Z6	X7	Y7	Z7	X8	Y8	Z8	X9	Y9	Z9	

1	0.000	-134.30571	14.64789	40.60009	240.15645	19.88207	-43.91637	-262.23587	24.10204	566.13464	261.92490	18.42995	547.82428	26.78189	808.49060	-126.73806	-57.85379	545.93439	-107.58250	94.94930	551.00165	-108.07243	-58.34776	554.79779	776.16278	92.77875	553.97345	778.63092	
2	0.010	-136.39217	15.84770	42.01448	240.98372	22.19318	-43.40546	-262.09302	24.65909	565.98035	262.52972	17.32608	548.49487	27.62465	808.63098	-126.20972	-57.66123	547.00006	-107.16281	95.45173	551.82794	-107.95423	-58.63082	554.55945	776.26135	92.64452	553.75885	778.94910	
3	0.020	-135.04993	15.43964	41.59955	240.14169	21.90975	-43.54723	-262.23126	24.49256	565.88556	262.04004	17.97655	546.31305	28.81835	809.98572	-125.79445	-57.39593	547.72943	-107.06667	95.78221	552.48450	-107.62090	-59.23397	554.88214	776.43585	92.12071	553.83929	779.11823	
4	0.030	-135.09555	16.06476	41.59872	241.15733	22.30811	-43.53567	-262.24155	24.47209	565.89398	261.94547	17.89766	548.36420	28.97918	811.21405	-125.13654	-56.84739	547.87341	-106.78925	96.18568	552.96619	-107.35897	-58.94198	555.12872	777.22131	91.76554	554.28168	779.39618	
5	0.040	-135.03493	16.11439	41.43646	241.41061	21.74149	-43.32111	-262.34848	24.39050	565.78662	261.93381	18.75903	547.79309	29.05424	811.76056	-124.76201	-56.02770	547.98224	-106.62395	96.72417	553.33179	-107.03699	-59.50809	555.52661	777.38916	91.34911	554.75720	779.72620	
6	0.050	-134.93433	16.17014	41.42504	241.52963	21.71671	-43.31116	-262.38370	24.33536	565.78156	261.81400	17.30656	547.43707	29.19635	811.43561	-124.58896	-55.49347	547.99255	-106.55136	97.73778	553.62146	-106.48737	-59.97602	555.81122	777.56696	91.31296	555.25055	780.69019	
7	0.060	-134.89314	16.21742	41.40479	242.13098	21.69694	-43.56402	-262.41086	24.34185	565.69177	261.99481	17.69849	547.67169	29.73393	810.92932	-124.58417	-54.79298	547.94727	-106.16731	98.24848	553.73560	-105.85145	-60.25628	556.04626	777.75580	90.54252	555.55939	780.58081	
8	0.070	-134.93636	16.17788	41.42952	241.15395	21.26828	-43.53836	-262.31500	24.43054	565.69067	261.86313	18.12035	547.86163	30.12154	810.93109	-124.50893	-54.25396	547.77557	-105.80696	98.52476	553.72235	-105.51496	-60.28806	556.46930	777.96033	90.41010	555.93945	780.87067	
9	0.080	-134.98354	16.19359	41.44721	242.19940	22.12340	-43.02421	-262.30511	24.46029	565.68610	261.89188	18.13318	547.81195	30.57570	811.03656	-124.34159	-54.02867	547.69244	-105.65749	98.90023	553.61920	-105.10862	-60.62000	556.94348	778.35822	90.12223	556.37897	781.06061	
10	0.090	-134.97372	16.15705	41.46994	242.16609	22.08252	-43.02340	-262.30652	24.43387	565.67474	261.85681	18.07833	547.84369	30.90032	810.89056	-123.99339	-53.79181	547.67316	-105.44323	99.07822	553.54291	-105.03162	-60.65255	557.09711	778.67767	89.83643	556.65582	781.35400	
11	0.100	-134.95427	16.09431	41.45560	242.19000	22.06283	-42.99343	-262.38040	24.40807	565.63934	261.79034	17.95661	547.76410	31.15068	810.75751	-123.72677	-53.55810	547.61908	-105.19749	99.31062	553.43921	-104.63052	-59.97913	556.74017	778.72278	89.65434	556.88861	782.04065	
12	0.110	-134.97513	16.08687	41.49537	240.98166	21.54307	-43.30875	-262.36581	24.40467	565.67505	261.73636	17.93572	547.76727	31.20244	810.77203	-123.42251	-53.24160	547.50317	-104.77695	99.36431	553.42590	-104.47757	-60.58364	557.10596	779.32141	89.62171	557.04523	782.31915	
13	0.120	-134.96954	16.11304	41.49316	242.15793	21.61914	-43.46797	-262.30634	24.42860	565.70905	261.77240	17.95281	547.79761	31.38610	810.69592	-123.01763	-52.95016	547.47168	-104.30023	99.48051	553.40045	-104.11397	-60.47023	557.07788	779.66113	89.69363	557.08099	782.64746	
14	0.130	-134.96828	16.14290	41.50350	242.23950	22.13768	-42.92028	-262.29120	24.49097	565.73254	261.81375	17.96324	547.83868	31.59432	810.61365	-122.67336	-52.73932	547.44659	-103.82153	99.82640	553.25006	-103.36692	-59.81128	556.72174	779.72833	89.58092	556.85876	782.77313	
15	0.140	-134.99283	16.12167	41.51222	242.27159	22.14136	-42.92708	-262.26807	24.47474	565.74701	261.79477	17.92700	547.87036	31.70961	810.57391	-122.39296	-52.72255	547.41772	-103.72961	99.99613	553.16827	-103.03642	-60.26340	556.93420	780.16364	89.55638	556.79645	783.20422	
16	0.150	-134.98636	16.05511	41.57661	242.20599	22.11684	-42.95881	-262.27991	24.44581	565.72784	261.76816	17.83776	547.84912	31.91281	810.45135	-121.96983	-52.66488	547.32269	-103.42312	99.93222	553.26477	-103.12457	-60.24180	556.73309	780.46796	91.22797	556.57532	784.49988	
17	0.160	-135.01041	15.93149	41.58626	242.23027	22.08610	-42.93570	-262.25552	24.43617	565.74438	261.76407	17.78441	547.80731	32.01904	810.30151	-121.64137	-52.45547	546.99695	-102.96250	100.16069	553.07861	-102.64760	-60.34951	556.72119	781.05219	91.82841	556.55267	785.26837	
18	0.170	-135.03917	15.95962	41.60839	242.13885	21.62625	-43.38903	-262.25320	24.48055	565.80292	261.78333	17.76951	547.86115	32.20113	810.23987	-121.22630	-52.38058	546.91058	-102.67271	100.06272	553.04785	-102.34617	-60.36650	556.68683	781.50525	92.71855	556.73236	785.87836	
19	0.180	-135.18858	16.15755	41.57877	242.35138	22.12724	-42.82368	-262.24127	24.49967	565.79175	261.74011	17.79971	547.87775	32.35276	810.19354	-120.85301	-52.04710	546.86572	-102.10452	100.67855	552.83765	-101.82877	-60.33677	556.65680	781.75903	91.14561	556.46893	785.47473	
20	0.190	-135.51401	16.31977	41.56214	242.36305	22.09481	-42.84368	-262.21692	24.51548	565.80389	261.78427	17.88434	547.94379	32.64750	810.13861	-120.50642	-51.82071	546.93384	-101.80788	101.13940	552.72845	-101.02199	-60.58589	556.80896	781.74719	87.89744	556.17505	783.90741	
21	0.200	-134.62958	15.78929	41.67062	242.28122	22.04599	-42.83333	-262.27615	24.52366	565.79889	261.73535	17.86568	547.93542	32.97224	810.03296	-120.03263	-51.55611	546.99927	-101.53961	101.37132	552.67145	-100.84879	-60.62105	556.78784	782.01685	90.45047	555.67010	785.17926	
22	0.210	-134.59622	15.71463	41.70055	241.09702	21.44472	-43.09968	-262.26685	24.51009	565.80774	261.74011	17.81148	547.92450	33.30402	810.03687	-119.61487	-51.29858	547.01727	-101.19376	101.78003	552.58411	-100.27784	-60.15372	556.27484	782.13342	90.26154	555.64691	786.15283	
23	0.220	-134.87955	15.92910	41.68265	242.16270	21.52856	-43.25312	-262.25800	24.48807	565.82800	261.67770	17.78866	547.93988	33.66512	810.15686	-119.09476	-50.96022	546.99719	-100.76948	101.95043	552.70917	-100.01318	-60.68135	556.35883	782.91089	90.92308	555.73944	787.28149	
24	0.230	-134.77469	16.00347	41.67479	242.20007	21.67673	-43.16084	-262.26242	24.48714	565.84155	261.68588	17.77745	547.99390	34.02244	810.22571	-118.56589	-50.46405	547.05536	-100.29134	102.47890	552.88000	-99.15929	-59.79280	555.79834	783.46222	90.63647	555.63257	787.15173	
25	0.240	-134.47569	15.97966	41.60620	242.43793	22.15639	-42.65469	-262.22858	24.52579	565.81384	261.67929	17.84388	548.05304	34.12450	810.44519	-118.10406	-50.17507	547.27350	-99.96958	102.86223	553.04810	-98.74244	-59.84622	555.64825	783.79309	90.61160	555.61597	787.61255	
26	0.250	-134.45848	15.97887	41.58621	242.25575	21.58770	-43.18682	-262.23978	24.52415	565.79651	261.67389	17.85629	548.05182	34.41228	810.45227	-117.73084	-49.91948	547.36548	-99.77586	102.98092	553.19495	-98.63891	-60.44210	555.79633	784.33600	90.28615	555.45190	788.01227	
27	0.260	-134.71898	16.14589	41.54955	242.23007	21.53626	-43.09980	-262.23380	24.51147	565.81219	261.64774	17.81703	548.08374	35.05364	810.35217	-117.22394	-49.44409	547.31494	-99.27641	103.14104	553.20483	-98.26578	-60.54048	555.65167	784.76904	89.87088	555.35352	788.32019	
28	0.270	-135.16682	16.33528	41.61971	241.26285	21.09278	-43.01635	-262.26361	24.50435	565.82147	261.66925	17.78037	548.10895	35.46094	810.29480	-116.77467	-49.14052	547.23126	-98.85143	103.70280	552.96259	-97.29176	-60.69485	555.58490	785.02600	89.75201	555.24133	788.59015	
